Patient4_TMGait_0pt3_03_right_06_EMG.mot
version=1
nRows=16
nColumns=33
inDegrees=no
endheader
time	1LAddLong	2LGlutMax	3LGlutMed	4LIliopsoas	5LSemiMemb	6LBicFemLong	7LRecFem	8LVastMed	9LVastLat	10LGasMed	11LTibAnt	12lTibPost	13LPeroneusLong	14LSol	15LExtDigLong	16LFlexDigLong	17RAddLong	18RGlutMax	19RGlutMed	20RIliopsoas	21RSemiMemb	22RBicFemLong	23RRecFem	24RVastMed	25RVastLat	26RGasMed	27RTibAnt	28RTibPost	29RPeroneusLong	30RSol	31RExtDigLong	32RFlexDigLong
12.625	0.037994	0.048065	-0.041962	-0.003662	0.04303	-0.001831	-0.041809	0.005493	0.058289	-0.000763	0.018921	0.008087	0.00412	-0.069427	0.086823	0.001373	0.002441	-0.20538	-0.10956	0.000763	0.02655	0.039673	-0.12985	0.061493	0.082092	-0.014038	0.10544	-0.005798	0.14679	-0.018921	-0.003815	-0.00946
12.626	0.030823	0.049133	-0.062408	-0.008545	0.039063	0.03006	-0.056305	-0.005341	0.034943	0.001221	0.005188	0.019836	0.021057	0.023804	0.083771	0.000458	0.006409	-0.16647	-0.15289	-0.036011	0.01297	0.016174	-0.22354	-0.04715	0.055084	-0.01709	0.15793	-0.002899	0.16983	-0.011749	-0.000153	-0.016937
12.627	0.025787	0.065613	-0.011292	0.007172	0.055237	0.050049	-0.052032	-0.00946	-0.010834	0.007172	-0.003204	-0.003662	0.000305	0.029755	0.068359	-0.00412	-0.009155	-0.16327	0.067596	-0.066528	0.019379	0.002136	-0.24277	-0.11826	0.085754	-0.01709	-0.19073	-0.007324	0.19943	0.038452	-0.000916	-0.015564
12.628	0.009003	0.071259	0.037689	-0.009918	0.007477	0.076447	-0.022125	-0.017853	-0.10223	0.013733	-0.011749	-0.001373	0.008698	0.011444	0.064087	-0.002289	-0.002289	-0.10544	0.21606	-0.075989	0.025482	0.019226	-0.22705	-0.088654	0.093536	-0.006714	-0.112	-0.006561	0.12344	0.13687	-0.00824	-0.009766
12.629	-0.002594	0.060577	-0.014801	-0.008698	-0.035706	0.095367	-0.009766	-0.008087	-0.15137	0.010834	-0.002441	-0.003815	0.032806	0.00885	0.045776	-0.010529	-0.002289	-0.20386	0.043182	-0.057831	0.038452	0.033569	-0.27344	0.046692	0.058594	-0.000153	0.075073	-0.003662	0.017242	0.16403	-0.001068	0.001068
12.63	-0.013275	0.043335	0.007629	-0.025024	-0.09903	0.078278	-0.001068	-0.000458	-0.10193	0.013733	0.011292	0.007935	0.033722	0.009308	0.028992	0.000153	0.024109	-0.13763	0.079651	-0.12924	0.001526	-0.000763	-0.20218	0.007324	0.045319	-0.007324	0.082092	0	-0.054932	0.001221	-0.002136	-0.004272
12.631	-0.014496	0.075378	-0.006561	0.023041	-0.11932	0.050812	0.010071	0.000153	-0.049896	0.00824	0.005341	0.013885	0.006409	0.005035	0.015106	0.002747	0.024414	-0.12543	0.14069	-0.18951	-0.092773	0.018616	-0.05249	-0.066376	-0.011139	0.002136	0.058594	-0.007019	-0.11368	0.010681	-0.00061	-0.009918
12.632	-0.002289	0.093994	-0.036621	0.018158	-0.049438	-0.067139	-0.00946	-0.001526	-0.018311	0.010071	0.045624	0.005035	-0.007324	0.009918	0.000305	-0.001984	0.04303	-0.083313	-0.04837	-0.27222	-0.099945	-0.032349	-0.068207	0.042267	-0.090942	0.000763	-0.005035	-0.00351	-0.068207	0.13321	-0.002899	-0.00885
12.633	0.016632	0.059357	-0.021057	0.009003	0.095825	-0.19363	-0.012512	0.002747	-0.008545	0.008698	0.060272	0.005951	-0.016479	0.024109	0.013428	-0.001526	0.008087	-0.13092	-0.02655	-0.19196	-0.070648	-0.071716	-0.27176	0.075989	-0.033875	-0.002441	-0.030365	-0.001221	0.048676	0.13489	-0.003357	-0.018616
12.634	0.019379	0.039215	-0.015717	0.007935	0.096436	-0.16144	0.023041	-0.006104	-0.022278	0.009918	0.072479	0.009308	-0.008392	0.019226	0.004578	0.005035	0.033875	-0.17807	0.30395	0.028839	-0.13748	-0.09491	-0.22049	0.046082	-0.010529	0.000916	0.012054	-0.00412	0.11032	-0.034027	-0.001831	-0.024109
12.635	0.009155	0.032806	-0.01297	-0.002289	0.088043	-0.046387	0.035095	0.00473	-0.013733	-0.005035	0.009155	0.002899	0.065765	0.01709	-0.006561	0.010223	0.020142	-0.19257	0.177	0.23895	0.034485	-0.11734	-0.082703	0.050964	-0.006256	0.001068	0.023651	-0.004578	0.12329	-0.17044	-0.00061	-0.008698
12.636	-0.005035	0.037842	-0.045624	-0.001678	0.099792	-0.006561	0.046082	0.000763	-0.017853	-0.006714	-0.080872	0.008545	0.064697	0.080872	0.068665	0.006409	0.031128	-0.21835	-0.2066	0.27237	-0.096283	-0.11459	-0.055695	0.010223	-0.035095	0.000305	-0.002441	-0.003815	0.060577	-0.20233	0	-0.018921
12.637	-0.012665	0.059814	-0.001068	0.004425	0.046539	0.038757	0.0354	-0.00061	-0.019073	0.018616	-0.08728	0.008698	0.020599	0.048981	0.063019	0.005035	0.046997	-0.13077	0.37231	0.22903	0.13229	-0.094604	-0.055237	0.030518	-0.080566	0.003357	0.050201	-0.005646	-0.088501	-0.18051	-0.001221	-0.021057
12.638	-0.019073	0.019684	0.052948	0.007477	0.005798	0.079956	0.034943	0.013733	-0.024719	0.016174	-0.065918	0.005035	0.031433	0.009766	-0.00061	0.005188	0.032349	-0.15396	0.24643	0.19424	0.32791	-0.11307	-0.090332	0.055542	-0.066833	0.006104	0.070953	-0.005493	-0.27573	-0.064087	-0.00473	-0.020142
12.639	-0.017853	0.027161	0.065765	0.004883	-0.010223	0.046082	0.001373	0.019684	-0.024567	0.008392	0.010223	0.005951	0.037079	0.021667	-0.035095	-0.006256	-0.002899	-0.10208	-0.25375	0.12207	0.15823	-0.13275	-0.11627	0.002289	-0.062714	0.008087	0.053253	-0.006561	-0.48004	0.050049	-0.004578	-0.014191
12.64	-0.008545	-0.036163	0.0354	0.010529	0.009003	0.015869	-0.012207	0.018005	-0.016937	0.000916	0.00473	0.011902	0.003357	0.027161	-0.014343	-0.000305	-0.051575	-0.17242	-0.012665	0.004883	-0.065155	0.044556	-0.10117	0.03067	-0.05127	0.010529	0.072021	-0.000458	-0.61264	-0.039673	0.001373	-0.009155
